<mxfile host="app.diagrams.net" modified="2024-05-14T22:41:43.403Z" agent="Mozilla/5.0 (Windows NT 10.0; Win64; x64) AppleWebKit/537.36 (KHTML, like Gecko) Chrome/124.0.0.0 Safari/537.36" etag="TfQYr_Fc6Q71vSBZAWz3" version="24.4.0" type="google">
  <diagram name="Page-1" id="7flOCjvt3rZemZKaplHi">
    <mxGraphModel grid="1" page="1" gridSize="10" guides="1" tooltips="1" connect="1" arrows="1" fold="1" pageScale="1" pageWidth="850" pageHeight="1100" math="0" shadow="0">
      <root>
        <mxCell id="0" />
        <mxCell id="1" parent="0" />
        <mxCell id="RD8yCjefNNEAw7gXHvtB-1" value="Category" style="swimlane;fontStyle=0;childLayout=stackLayout;horizontal=1;startSize=30;horizontalStack=0;resizeParent=1;resizeParentMax=0;resizeLast=0;collapsible=1;marginBottom=0;whiteSpace=wrap;html=1;" vertex="1" parent="1">
          <mxGeometry x="-30" y="260" width="260" height="120" as="geometry" />
        </mxCell>
        <mxCell id="RD8yCjefNNEAw7gXHvtB-2" value="name" style="text;strokeColor=none;fillColor=none;align=left;verticalAlign=middle;spacingLeft=4;spacingRight=4;overflow=hidden;points=[[0,0.5],[1,0.5]];portConstraint=eastwest;rotatable=0;whiteSpace=wrap;html=1;" vertex="1" parent="RD8yCjefNNEAw7gXHvtB-1">
          <mxGeometry y="30" width="260" height="30" as="geometry" />
        </mxCell>
        <mxCell id="RD8yCjefNNEAw7gXHvtB-3" value="is_horror" style="text;strokeColor=none;fillColor=none;align=left;verticalAlign=middle;spacingLeft=4;spacingRight=4;overflow=hidden;points=[[0,0.5],[1,0.5]];portConstraint=eastwest;rotatable=0;whiteSpace=wrap;html=1;" vertex="1" parent="RD8yCjefNNEAw7gXHvtB-1">
          <mxGeometry y="60" width="260" height="30" as="geometry" />
        </mxCell>
        <mxCell id="RD8yCjefNNEAw7gXHvtB-11" value="Category(String name, boolean is_horror)" style="text;strokeColor=default;fillColor=default;align=left;verticalAlign=middle;spacingLeft=4;spacingRight=4;overflow=hidden;points=[[0,0.5],[1,0.5]];portConstraint=eastwest;rotatable=0;whiteSpace=wrap;html=1;" vertex="1" parent="RD8yCjefNNEAw7gXHvtB-1">
          <mxGeometry y="90" width="260" height="30" as="geometry" />
        </mxCell>
        <mxCell id="RD8yCjefNNEAw7gXHvtB-7" value="Movie" style="swimlane;fontStyle=0;childLayout=stackLayout;horizontal=1;startSize=30;horizontalStack=0;resizeParent=1;resizeParentMax=0;resizeLast=0;collapsible=1;marginBottom=0;whiteSpace=wrap;html=1;" vertex="1" parent="1">
          <mxGeometry x="425" y="270" width="260" height="120" as="geometry" />
        </mxCell>
        <mxCell id="RD8yCjefNNEAw7gXHvtB-9" value="- categories: List&amp;lt;Category&amp;gt;" style="text;strokeColor=default;fillColor=none;align=left;verticalAlign=middle;spacingLeft=4;spacingRight=4;overflow=hidden;points=[[0,0.5],[1,0.5]];portConstraint=eastwest;rotatable=0;whiteSpace=wrap;html=1;" vertex="1" parent="RD8yCjefNNEAw7gXHvtB-7">
          <mxGeometry y="30" width="260" height="30" as="geometry" />
        </mxCell>
        <mxCell id="RD8yCjefNNEAw7gXHvtB-13" value="+ Movie(Category ...category)" style="text;strokeColor=none;fillColor=none;align=left;verticalAlign=middle;spacingLeft=4;spacingRight=4;overflow=hidden;points=[[0,0.5],[1,0.5]];portConstraint=eastwest;rotatable=0;whiteSpace=wrap;html=1;" vertex="1" parent="RD8yCjefNNEAw7gXHvtB-7">
          <mxGeometry y="60" width="260" height="30" as="geometry" />
        </mxCell>
        <mxCell id="RD8yCjefNNEAw7gXHvtB-12" value="+ iterator" style="text;strokeColor=none;fillColor=none;align=left;verticalAlign=middle;spacingLeft=4;spacingRight=4;overflow=hidden;points=[[0,0.5],[1,0.5]];portConstraint=eastwest;rotatable=0;whiteSpace=wrap;html=1;" vertex="1" parent="RD8yCjefNNEAw7gXHvtB-7">
          <mxGeometry y="90" width="260" height="30" as="geometry" />
        </mxCell>
        <mxCell id="RD8yCjefNNEAw7gXHvtB-15" value="" style="endArrow=none;html=1;rounded=0;entryX=0.005;entryY=0.156;entryDx=0;entryDy=0;entryPerimeter=0;" edge="1" parent="1" source="RD8yCjefNNEAw7gXHvtB-3" target="RD8yCjefNNEAw7gXHvtB-13">
          <mxGeometry width="50" height="50" relative="1" as="geometry">
            <mxPoint x="370" y="130" as="sourcePoint" />
            <mxPoint x="420" y="80" as="targetPoint" />
          </mxGeometry>
        </mxCell>
        <mxCell id="RD8yCjefNNEAw7gXHvtB-16" value="Streaming" style="swimlane;fontStyle=0;childLayout=stackLayout;horizontal=1;startSize=30;horizontalStack=0;resizeParent=1;resizeParentMax=0;resizeLast=0;collapsible=1;marginBottom=0;whiteSpace=wrap;html=1;" vertex="1" parent="1">
          <mxGeometry x="370" y="580" width="260" height="90" as="geometry" />
        </mxCell>
        <mxCell id="RD8yCjefNNEAw7gXHvtB-17" value="+ countHorrorCategories (Movie movie)" style="text;strokeColor=none;fillColor=none;align=left;verticalAlign=middle;spacingLeft=4;spacingRight=4;overflow=hidden;points=[[0,0.5],[1,0.5]];portConstraint=eastwest;rotatable=0;whiteSpace=wrap;html=1;" vertex="1" parent="RD8yCjefNNEAw7gXHvtB-16">
          <mxGeometry y="30" width="260" height="30" as="geometry" />
        </mxCell>
        <mxCell id="RD8yCjefNNEAw7gXHvtB-18" value="+ countAllCategories (Movie movie)" style="text;strokeColor=none;fillColor=none;align=left;verticalAlign=middle;spacingLeft=4;spacingRight=4;overflow=hidden;points=[[0,0.5],[1,0.5]];portConstraint=eastwest;rotatable=0;whiteSpace=wrap;html=1;" vertex="1" parent="RD8yCjefNNEAw7gXHvtB-16">
          <mxGeometry y="60" width="260" height="30" as="geometry" />
        </mxCell>
        <mxCell id="RD8yCjefNNEAw7gXHvtB-20" value="" style="endArrow=none;html=1;rounded=0;exitX=0.704;exitY=0.002;exitDx=0;exitDy=0;exitPerimeter=0;" edge="1" parent="1" source="RD8yCjefNNEAw7gXHvtB-16" target="RD8yCjefNNEAw7gXHvtB-12">
          <mxGeometry width="50" height="50" relative="1" as="geometry">
            <mxPoint x="230" y="436.32" as="sourcePoint" />
            <mxPoint x="426" y="430.32" as="targetPoint" />
          </mxGeometry>
        </mxCell>
      </root>
    </mxGraphModel>
  </diagram>
</mxfile>
